<svg width="41" height="42" viewBox="0 0 41 42" fill="none" xmlns="http://www.w3.org/2000/svg">
<path d="M40.868 12.1215C40.845 10.3971 40.5222 8.6899 39.914 7.07619C39.3866 5.71503 38.581 4.47885 37.5488 3.44664C36.5166 2.41443 35.2804 1.60888 33.9193 1.08146C32.3263 0.483487 30.6434 0.160151 28.9422 0.125222C26.752 0.0273213 26.0576 0 20.4977 0C14.9379 0 14.2252 1.52669e-07 12.0509 0.125222C10.3505 0.160407 8.66844 0.48374 7.07619 1.08146C5.71482 1.60851 4.47845 2.41393 3.44619 3.44619C2.41393 4.47845 1.60851 5.71482 1.08146 7.07619C0.48229 8.66795 0.159654 10.3504 0.127499 12.0509C0.0295979 14.2434 0 14.9379 0 20.4977C0 26.0576 -1.69632e-08 26.7679 0.127499 28.9445C0.16165 30.6475 0.482674 32.3278 1.08146 33.9238C1.60939 35.2848 2.41541 36.5206 3.44802 37.5525C4.48062 38.5843 5.7171 39.3894 7.07847 39.9163C8.66636 40.5383 10.3487 40.8847 12.0532 40.9408C14.2457 41.0387 14.9401 41.0683 20.5 41.0683C26.0599 41.0683 26.7725 41.0683 28.9468 40.9408C30.6479 40.9073 32.3309 40.5847 33.9238 39.9868C35.2846 39.4588 36.5205 38.6531 37.5526 37.6209C38.5848 36.5888 39.3905 35.3529 39.9185 33.9921C40.5173 32.3984 40.8384 30.7181 40.8725 29.0128C40.9704 26.8226 41 26.1282 41 20.566C40.9954 15.0062 40.9955 14.3004 40.868 12.1215V12.1215ZM20.4841 31.0118C14.6692 31.0118 9.95857 26.3012 9.95857 20.4863C9.95857 14.6715 14.6692 9.96085 20.4841 9.96085C23.2756 9.96085 25.9528 11.0698 27.9267 13.0437C29.9006 15.0176 31.0096 17.6948 31.0096 20.4863C31.0096 23.2779 29.9006 25.9551 27.9267 27.929C25.9528 29.9029 23.2756 31.0118 20.4841 31.0118V31.0118ZM31.4285 12.0259C31.1061 12.0262 30.7868 11.9629 30.4889 11.8397C30.191 11.7164 29.9203 11.5356 29.6923 11.3077C29.4644 11.0797 29.2836 10.809 29.1603 10.5111C29.0371 10.2132 28.9738 9.89392 28.9741 9.57152C28.9741 9.24936 29.0376 8.93036 29.1609 8.63272C29.2842 8.33508 29.4649 8.06464 29.6927 7.83684C29.9205 7.60904 30.1909 7.42833 30.4885 7.30505C30.7862 7.18176 31.1052 7.11831 31.4273 7.11831C31.7495 7.11831 32.0685 7.18176 32.3661 7.30505C32.6638 7.42833 32.9342 7.60904 33.162 7.83684C33.3898 8.06464 33.5705 8.33508 33.6938 8.63272C33.8171 8.93036 33.8806 9.24936 33.8806 9.57152C33.8806 10.9285 32.7832 12.0259 31.4285 12.0259Z" fill="black"/>
<path d="M20.4839 27.3234C24.2599 27.3234 27.321 24.2623 27.321 20.4863C27.321 16.7103 24.2599 13.6492 20.4839 13.6492C16.7078 13.6492 13.6467 16.7103 13.6467 20.4863C13.6467 24.2623 16.7078 27.3234 20.4839 27.3234Z" fill="black"/>
</svg>
