<svg width="41" height="41" viewBox="0 0 41 41" fill="none" xmlns="http://www.w3.org/2000/svg">
<path d="M39.8692 14.2295L2.03463 0.0960023C1.76482 -0.00535122 1.47168 -0.0269919 1.18997 0.0336473C0.908266 0.0942866 0.649821 0.234661 0.445294 0.438118C0.240768 0.641576 0.0987427 0.899578 0.036067 1.18152C-0.0266087 1.46346 -0.00730492 1.75751 0.0916886 2.02878L14.2646 40.02C14.3746 40.3143 14.5734 40.5667 14.8334 40.7423C15.0933 40.9179 15.4014 41.0078 15.7147 40.9995C16.0281 40.9912 16.331 40.8851 16.5813 40.696C16.8316 40.5069 17.0169 40.2442 17.1112 39.9445L21.1628 26.7321L34.8989 40.171C35.1811 40.4523 35.5628 40.6101 35.9607 40.6101C36.3586 40.6101 36.7404 40.4523 37.0226 40.171L40.562 36.6226C40.8425 36.3396 41 35.9569 41 35.558C41 35.1591 40.8425 34.7764 40.562 34.4935L26.8711 21.115L39.8692 17.0833C40.1651 16.9806 40.4218 16.788 40.6034 16.5323C40.7851 16.2765 40.8827 15.9704 40.8827 15.6564C40.8827 15.3424 40.7851 15.0363 40.6034 14.7805C40.4218 14.5248 40.1651 14.3322 39.8692 14.2295Z" fill="black"/>
</svg>
