<?xml version="1.0" encoding="utf-8"?>
<!-- Generator: Adobe Illustrator 27.2.0, SVG Export Plug-In . SVG Version: 6.00 Build 0)  -->
<svg version="1.1" id="Layer_1" xmlns="http://www.w3.org/2000/svg" xmlns:xlink="http://www.w3.org/1999/xlink" x="0px" y="0px"
	 viewBox="0 0 41 41" style="enable-background:new 0 0 41 41;" xml:space="preserve">
<style type="text/css">
	.st0{fill-rule:evenodd;clip-rule:evenodd;fill:#0000FF;}
</style>
<path class="st0" d="M41,20.5C41,31.8,31.8,41,20.5,41C9.2,41,0,31.8,0,20.5C0,9.2,9.2,0,20.5,0C31.8,0,41,9.2,41,20.5z M37.1,20.6
	c0,7.4-4,13.3-8.9,13.3s-8.9-6-8.9-13.3c0-7.4,4-13.3,8.9-13.3S37.1,13.3,37.1,20.6z M11.3,17.5c1.6,0,2.9-2.4,2.9-5.3
	c0-2.9-1.3-5.3-2.9-5.3c-1.6,0-2.9,2.4-2.9,5.3C8.5,15.2,9.7,17.5,11.3,17.5z"/>
</svg>
